<svg id="Слой_1" data-name="Слой 1" xmlns="http://www.w3.org/2000/svg" viewBox="0 0 447.58 560.46"><defs><style>.cls-1{fill:#f07f30;}</style></defs><path class="cls-1" d="M95.72,678.18q10.85-53.53,21.7-107.06,9.64-47.55,19.26-95.1,8.7-42.91,17.38-85.83c.86-4.26.82-4.28-3.5-4.28q-44.52,0-89.06,0c-4.08,0-4.08,0-4.08-4V121.79c0-4.07,0-4.07,4-4.07H500.9c4.09,0,4.1,0,4.1,4V381.82c0,4.08,0,4.09-4,4.09h-93.4Q437.29,532.6,466.7,678.18H422.62q-3.21-16.78-6.42-33.56-8.38-44.05-16.72-88.13c-.51-2.71-1.6-3.57-4.41-3.56-29.18.11-58.36.07-87.53.07-4.47,0-4.48,0-4.49,4.57,0,28.06,0,56.11.06,84.17,0,3-.85,3.83-3.8,3.79-11.94-.15-23.87-.06-35.81-.06-4.13,0-4.14,0-4.14-4.26q0-42.08,0-84.16c0-4,0-4-4.09-4q-43,0-86,0c-6.48,0-5.27-.85-6.47,5.31q-10.4,53.77-20.64,107.58c-.77,4.06-1.18,8.18-1.75,12.28ZM281.41,126.42H70.86c-4.79,0-4.79,0-4.79,4.66q0,95.17,0,190.35c0,4.43,0,4.43,4.54,4.43H338.08c2.66,0,5.31-.11,8,0,2.11.11,2.88-.62,2.83-2.77-.11-5.51,0-11-.07-16.53,0-2.07.62-3.06,2.8-2.89,1.31.1,2.65,0,4,0q52,0,104.05-.05c2.93,0,3.94.79,3.81,3.78-.22,5.09,0,10.2-.09,15.3-.06,2.36.68,3.2,3.14,3.16,8.77-.13,17.55-.15,26.32,0,2.74.05,3.64-.67,3.63-3.54q-.12-96.1,0-192.19c0-3-1-4.11-3.86-3.79a28.38,28.38,0,0,1-3.06,0Zm-.16,250.86H491.8c4.57,0,4.57,0,4.57-4.69q0-17,0-34c0-4,0-4-4.12-4.06H70.55c-4.47,0-4.48,0-4.48,4.36q0,16.83,0,33.66c0,4.69,0,4.7,4.64,4.7Zm111,143.86c-.14-1.45-.17-2.44-.35-3.4q-4.38-22.92-8.79-45.84c-5.26-27.47-10.57-54.93-15.7-82.42-.53-2.84-1.64-3.64-4.39-3.62-18.56.09-37.13,0-55.7.05-4.23,0-4.29,0-4.29,4.24q0,63.36,0,126.71c0,4.27,0,4.28,4.2,4.28h85ZM170.06,521c1.74.07,3,.18,4.33.18h80.46c4.5,0,4.51,0,4.51-4.59q0-48.94,0-97.9c0-9.79,0-19.58,0-29.37,0-2.16-.47-3.42-3.05-3.41q-28.9.11-57.82,0c-2,0-2.92.74-3.28,2.71-1.58,8.7-3.26,17.39-4.93,26.07q-9.09,47.34-18.19,94.66C171.39,513.07,170.78,516.84,170.06,521ZM106.79,668.66c8.59,0,16.43.07,24.27-.1.74,0,1.84-1.42,2.09-2.36.72-2.75,1-5.6,1.59-8.4q7.23-37.59,14.47-75.2,9.31-48.69,18.58-97.41,9.19-48.1,18.5-96.18c.47-2.42-.23-3.15-2.54-3.12-5.51.07-11,.13-16.52,0-2.49-.07-3.55.67-4.07,3.25q-12.94,64.63-26.09,129.23-13.63,67.45-27.26,134.91C108.81,658.2,107.86,663.17,106.79,668.66Zm348.67,0c-.18-1.61-.23-2.81-.47-4q-4.08-20.19-8.19-40.37-9.68-48-19.34-96-9.6-47.55-19.25-95.08c-3-14.85-6-29.69-9-44.55-.33-1.69-.76-2.83-2.81-2.81-6,.08-12,.05-18.05,0-2.14,0-2.57.88-2.13,2.88.91,4.07,1.57,8.19,2.36,12.28q8.1,42.09,16.19,84.16,8.5,44.34,16.93,88.68,6.6,34.61,13.18,69.21c1.45,7.59,2.89,15.18,4.4,22.76.26,1.29.31,2.85,2.46,2.83C439.46,668.62,447.2,668.67,455.46,668.67Zm-161.1-215.2c0-21.41,0-42.82,0-64.23,0-2.46-.62-3.44-3.23-3.38-6.62.15-13.26.14-19.88,0-2.59-.05-3.29.94-3.27,3.4.1,10.91,0,21.82,0,32.73,0,31.81,0,63.62-.06,95.43,0,2.94.81,3.88,3.77,3.78,6.32-.21,12.65-.22,19,0,3,.11,3.71-.94,3.69-3.81C294.31,496.09,294.36,474.78,294.36,453.47Zm0,99.53c-8.13,0-15.67.09-23.21,0-2.42,0-3.14.7-3.13,3.11q.11,38.7,0,77.41c0,2.81,1.05,3.45,3.59,3.39,6.32-.13,12.66-.22,19,0,3.23.13,3.87-1,3.85-4-.11-25.4-.06-50.79-.06-76.18Zm102.45-9.2c-.64-3.64-1.36-6.78-1.7-10-.31-2.81-1.55-3.57-4.34-3.56-26.19.12-52.38.07-78.56.07-9.23,0-9.23,0-9.16,9.36,0,4.08,0,4.09,4,4.09h89.72Zm-231.2,0h4.52q39.76,0,79.53,0c3,0,7.33.9,8.75-.68,1.65-1.83.66-5.94,1-9.05s-.94-3.77-3.85-3.76c-24.06.11-48.13.06-72.19.06-4.28,0-8.57-.08-12.85.07-.89,0-2.38.75-2.54,1.41C167,535.56,166.44,539.36,165.61,543.8ZM425.38,325.86c8.67,0,17.33-.07,26,.05,2.45,0,3.58-.61,3.38-3.23a48.52,48.52,0,0,1,0-7c.19-2.6-.93-3.28-3.39-3.27-17.23.08-34.46.11-51.69,0-3,0-3.76,1.11-3.59,3.76a46.14,46.14,0,0,1,0,6.11c-.19,2.7.67,3.77,3.61,3.7C408.25,325.74,416.82,325.86,425.38,325.86Zm-53,0c4.17,0,8.34-.06,12.52,0,1.77,0,2.62-.49,2.54-2.41-.1-2.85-.09-5.7,0-8.55.06-1.81-.62-2.54-2.48-2.52q-12.36.07-24.73,0c-1.78,0-2.67.63-2.65,2.45,0,2.85,0,5.7,0,8.55,0,1.8.77,2.52,2.6,2.48C364.22,325.8,368.29,325.86,372.36,325.86ZM294.06,543.8V530.36c-8.14,0-16,0-23.82,0-1.56,0-2.21.57-2.18,2.15.06,3,.09,5.91,0,8.86-.06,1.86.65,2.51,2.5,2.47,4.38-.09,8.76,0,13.15,0Z" transform="translate(-57.42 -117.72)"/><path class="cls-1" d="M123.67,160.7a18.13,18.13,0,0,1-18.85,18.7c-11.7-.15-18.68-9.21-18.58-19.1.1-9.43,7.08-18.6,18.81-18.54C117.86,141.84,124.28,152.47,123.67,160.7Zm-18.62-9.9a9.79,9.79,0,1,0,0,19.57,9.79,9.79,0,1,0,0-19.57Z" transform="translate(-57.42 -117.72)"/><path class="cls-1" d="M123.67,210.39a18.85,18.85,0,0,1-18.88,18.77,19.07,19.07,0,0,1-18.58-18.91c0-8.74,6.21-18.79,18.87-18.81A18.16,18.16,0,0,1,123.67,210.39Zm-8.69-.18a9.71,9.71,0,0,0-9.85-9.82A10,10,0,0,0,95,210.3a10.35,10.35,0,0,0,10.27,10A10.08,10.08,0,0,0,115,210.21Z" transform="translate(-57.42 -117.72)"/></svg>