<svg id="Слой_1" data-name="Слой 1" xmlns="http://www.w3.org/2000/svg" viewBox="0 0 1884 670.4"><defs><style>.cls-1{fill:#f97f29;}</style></defs><path class="cls-1" d="M1902.18,670.09c-15.1,0-30.26-.76-45.29.33-7.28.53-11.43-1.85-15.12-7.11-.14-.2-.31-.38-.47-.57-5.84-7.24-6.08-7.56-13.81-1.73-11.68,8.81-25,11.69-39.14,11.85a121.86,121.86,0,0,1-20.71-1.63c-12.42-2-21.48-9.58-28.44-19.52-13.46-19.24-13.78-39.58-3.11-60,5.68-10.88,15.77-17,27-21.28s23.07-5.95,35-7c11-1,22-1.92,33-3.09a4.78,4.78,0,0,0,3.19-2.72c6-18.11-8.34-38.14-27.55-38.87-7.84-.3-14.9,2-21.62,5.67a7.84,7.84,0,0,0-3.07,3.8,93.71,93.71,0,0,0-3.49,10.38c-.77,2.77-2.44,4.13-5.2,4.21q-16.07.45-32.12.83c-1.88,0-3.5-.31-3.46-2.68.17-10.1,0-20.22.7-30.28.37-5.88,3.77-10.15,9.23-13.09,15.46-8.33,31.52-14.82,49.07-17a97.8,97.8,0,0,1,50.43,7c9.9,4.15,18.76,9.67,26,17.8a51.76,51.76,0,0,1,12.78,30.47c.89,10.16.82,20.42.88,30.64q.18,30,0,59.93c0,3.22.69,5.57,3.69,7.23,2.76,1.53,5.15,3.7,7.86,5.32,2.4,1.43,3.16,3.32,3.18,6,0,5,.44,9.9.69,14.86Zm-82.53-78.21h0c-3.28,0-6.57-.08-9.85,0-14.7.43-24.65,7.58-28.31,20.28-2.68,9.31,3.08,19.07,12.56,20.65a56.58,56.58,0,0,0,13.06.65c10.35-.73,18.86-5.48,25.34-13.48,5-6.18,5.39-19.53,1.07-26.4a4.66,4.66,0,0,0-3.29-1.62C1826.71,591.75,1823.18,591.88,1819.65,591.88Z" transform="translate(-18.18 -205.12)"/><path class="cls-1" d="M1672.6,522.77V629.5c0,6.21,0,6.18,5.59,8.47,4.39,1.81,8.71,3.79,13.14,5.5,2.25.86,3.29,2.12,3.25,4.59q-.15,10.23,0,20.46c0,2.6-.9,3.75-3.61,3.77-25.57.18-51.14.46-76.71.63-3.4,0-6.79-.47-10.19-.58-2.19-.07-3-1.12-3-3.19,0-7.19-.17-14.38.15-21.56.06-1.46,1.69-3.44,3.11-4.15a72.54,72.54,0,0,1,12.21-4.85c4-1.17,5.09-3.45,5.07-7.46-.14-32.4-.08-64.81-.08-97.22,0-27.9-.07-55.8.08-83.7,0-3.79-1.06-5.72-4.8-6.82-5.49-1.6-10.77-3.9-16.19-5.71-2.32-.78-3.32-2-3.28-4.5.11-6.58.1-13.16,0-19.74,0-2.64,1-3.7,3.68-3.69q34,.09,68,0c3.74,0,3.64,2.25,3.64,4.83q0,42.95,0,85.89Z" transform="translate(-18.18 -205.12)"/><path class="cls-1" d="M554.07,205.12a34.45,34.45,0,0,1,.73,5q.06,156.24,0,312.5c0,4.78-.16,4.94-4.92,4.94h-106c-5.37,0-5.29,0-4.24,5.24q13.26,65.52,26.45,131.07,21.15,104.75,42.31,209.48c.15.72.21,1.44.31,2.17h-54.1c-.67-3.35-1.37-6.68-2-10q-12.86-66.91-25.69-133.82c-1-5.13-.95-5.15-6.29-5.15H319c-5.39,0-5.4,0-5.4,5.45V832.13c0,5.4,0,5.41-5.55,5.42h-43.5c-5.21,0-5.25,0-5.25-5.35V733.14c0-6.61,0-6.61-6.43-6.61h-95c-10.73,0-10.76,0-12.79,10.57q-9.79,51.12-19.57,102.25c-2.32,12.08-4.78,24.12-7.18,36.18H64.24l16.56-82Q107.11,663.27,133.4,533c1.09-5.4,1.08-5.41-4.52-5.41l-110.7,0V205.12ZM286.51,217.65h-250c-5.85,0-5.86,0-5.86,5.77V448.56c0,5.71,0,5.72,5.89,5.72h247.8c25.83,0,51.66,0,77.49.06,3.34,0,4.54-1,4.43-4.4-.19-6.2,0-12.42-.08-18.63-.06-3,1-4.08,4.05-4.08q65.41.11,130.84,0c3,0,4.15,1,4.09,4-.14,6.33.07,12.67-.08,19-.07,3,.93,4.11,4,4.06,9.14-.15,18.27-.05,27.41-.05,5.92,0,5.92,0,5.92-6.09V223.78c0-1.1.35-2.39-.12-3.24a6.39,6.39,0,0,0-2.89-2.77c-1.15-.47-2.64-.12-4-.12Zm.35,248.57H35.74c-5.07,0-5.08,0-5.09,5.07q0,18.82,0,37.65c0,6.19,0,6.19,6.22,6.19H536.18c1.09,0,2.38.34,3.24-.11,1.16-.62,2.81-1.85,2.83-2.83q.27-21.56,0-43.13c0-.95-1.69-2.24-2.86-2.72s-2.64-.12-4-.12Zm26.78,141c0,25,.06,50-.07,74.93,0,3.64,1,4.86,4.76,4.85,31.68-.12,63.36-.07,95-.08,4.66,0,4.94-.3,4.09-4.76Q403.11,607,388.77,531.81c-.63-3.34-2.09-4.32-5.36-4.3-21.56.12-43.13.06-64.7.06-5,0-5.07,0-5.07,5.09Q313.63,570,313.64,607.23Zm-54.3,0c0-25-.07-50,.07-74.92,0-3.7-1.1-4.82-4.79-4.79q-32.34.22-64.68,0c-3.71,0-5.06,1.22-5.7,4.74-2.93,16.18-6.1,32.31-9.19,48.45q-9.72,50.76-19.41,101.53c-.87,4.58-.7,4.72,4,4.72,31.67,0,63.34,0,95,.08,3.77,0,4.74-1.29,4.72-4.89C259.28,657.15,259.34,632.18,259.34,607.21ZM79.22,863.63c9.56,0,18.31.09,27.05-.15.92,0,2.33-1.93,2.59-3.16,1.87-8.93,3.5-17.92,5.22-26.89l39.66-207q9-47.18,18.07-94.35c.79-4.15.55-4.48-3.58-4.51-5.6,0-11.21.14-16.81-.06-3.27-.12-4.67,1-5.34,4.32q-13.65,68.24-27.53,136.43-17.47,86.46-34.92,172.94C82.17,848.46,80.77,855.72,79.22,863.63Zm414.58,0c-.39-2.29-.61-3.84-.92-5.36L452.41,658.13q-12.78-63.2-25.5-126.4c-.62-3.13-1.89-4.32-5.07-4.21-5.72.19-11.46.18-17.18,0-3.37-.11-4.11,1-3.47,4.31,7.32,37.77,14.47,75.58,21.71,113.36q14.43,75.33,28.92,150.66c4.11,21.4,8.16,42.81,12.39,64.19.26,1.33,1.78,3.4,2.77,3.43C475.71,863.75,484.45,863.63,493.8,863.63Zm-192.1-256c0-25.21-.05-50.43.06-75.64,0-3.32-1-4.53-4.37-4.44-7.18.2-14.37.16-21.56,0-3-.06-4,1.1-4,4.07q.09,75.64,0,151.29c0,3,1.05,4.14,4.06,4.09,7.06-.13,14.13-.23,21.19,0,3.79.14,4.73-1.27,4.71-4.87C301.63,657.29,301.7,632.44,301.7,607.59Zm0,168.23c0-15.09-.05-30.18.05-45.27,0-2.93-.82-4.14-3.92-4.07-7.3.17-14.61.15-21.91,0-2.93-.06-4.12.85-4.12,3.94q.12,45.27,0,90.54c0,3.31,1.34,4.18,4.37,4.12,7.06-.15,14.12-.18,21.17,0,3.31.08,4.47-1,4.43-4.37C301.61,805.76,301.7,790.79,301.69,775.82Zm121.93-61.49c-.73-3.84-1.57-7-1.88-10.26-.36-3.73-2.15-4.68-5.74-4.66-30.8.13-61.59.07-92.39.07-10,0-10,0-10,10,0,5,0,5.07,5,5.07H419.09C420.4,714.53,421.7,714.42,423.62,714.33Zm-274.2.21h99.93c10,0,10,0,10-10,0-5,0-5.07-5-5.07H157.11a10,10,0,0,0-2.9.11c-.8.26-1.9.94-2.06,1.62C151.15,705.42,150.38,709.69,149.42,714.54ZM458.66,454.28h24.45c9.59,0,9.45,0,9.58-9.75.05-3.66-1.11-4.86-4.8-4.83-17.64.16-35.28,0-52.92.1-12,.08-9.94-1.95-10.25,10.53-.08,3,1,4,4,4C438.71,454.19,448.68,454.27,458.66,454.28Zm-63.53,0c2.31,0,4.62,0,6.93,0,11.94-.28,10,2.3,10.22-10.89.05-2.7-1.13-3.66-3.73-3.63-6.45.08-12.89-.08-19.34,0-12.42.23-10.28-2.35-10.51,11.33,0,2.38,1,3.22,3.3,3.17C386.37,454.21,390.75,454.27,395.13,454.28ZM286.83,714.54h3.66c12,0,12,0,11.24-12-.14-2.16-.91-3-3.08-3-7.91.06-15.83,0-23.74,0-2.18,0-3.1,1-3.07,3.08.05,2.93.07,5.85,0,8.77-.06,2.35,1,3.28,3.31,3.23C279,714.47,282.94,714.53,286.83,714.54Z" transform="translate(-18.18 -205.12)"/><path class="cls-1" d="M1217.94,499.27c4.55-2,8-3.62,11.63-5,7.61-2.9,15.06-6.91,23-8.23,26-4.35,46.88,4.87,62.37,26.1,9.92,13.6,13.63,29.6,16.17,45.76,3.92,24.9,1.88,49.51-5.32,73.71-7.07,23.76-29.15,42.14-53.82,45.11-17.72,2.14-33.93-1.14-48.36-11.89-3-2.22-5.67-4.87-9-7.74-1.89,4-3.82,7.73-5.41,11.6-1.16,2.8-2.94,3.72-5.9,3.69q-16.27-.23-32.54,0c-2.88,0-4.31-1-4.57-3.84-.77-8.47-2.25-16.94-2.28-25.41q-.29-95.77,0-191.54c0-4.18-1-6.48-5.17-7.75-4.87-1.51-9.52-3.72-14.33-5.46a4.33,4.33,0,0,1-3.21-4.66q.1-10.41,0-20.83c0-2.85,1.26-3.84,4-3.84q34.17.09,68.35,0c3.31,0,3.73,1.73,3.75,4.39q.27,40,.66,80C1218,495,1217.94,496.57,1217.94,499.27Zm0,84.17c0,9.86-.09,19.72,0,29.57.09,8.5,3.81,14.94,11.42,19,1.72.91,3.46,1.8,5.23,2.6,14.22,6.39,29.22,2.13,38-10.68,6.68-9.78,8.85-21,8.58-32.32-.32-13.07-2.41-26.1-3.88-39.12-2.12-18.8-20-29.53-39.75-24.76-12.64,3.06-19.22,12.28-19.57,26.54C1217.75,564,1217.94,573.7,1218,583.44Z" transform="translate(-18.18 -205.12)"/><path class="cls-1" d="M773.43,424.33c8.41,0,16.81,0,25.22,0q66.87-.35,133.75-.73c5.5,0,5.51,0,5.51,5.42q0,28.69,0,57.39c0,5.35,0,5.39-5.2,5.4-10,0-20-.12-30,.07-3.38.06-5.11-.73-5.51-4.43-.59-5.31-1.85-10.55-2.65-15.85-.41-2.73-1.51-4-4.5-3.92-9.5.16-19,.2-28.51,0-3.45-.08-4.5,1.47-4.7,4.48-.43,6.31-1.32,12.62-1.38,18.93Q855,549,854.77,606.9c0,8.14,1,16.28,1.33,24.42.14,2.85,1.38,4.36,4.14,5.16,5.5,1.59,10.89,3.55,16.39,5.15,2.7.79,3.63,2.3,3.58,5-.13,6.7-.15,13.4,0,20.1.07,3.15-1.05,4.24-4.24,4.25q-43.85.22-87.69.69c-3.16,0-6.33.18-9.47.45-2.64.22-4.18-.36-4.13-3.47q.17-11.33,0-22.66c0-2.39,1.07-3.49,3.2-4.17,5.45-1.75,10.84-3.7,16.3-5.41,2.12-.67,3.31-1.71,3.47-4,.3-4.49,1-9,1.14-13.45.42-12.66.7-25.32.93-38,.25-13.76.67-27.52.51-41.27-.23-19.35-.88-38.7-1.43-58.05-.09-3.4-.52-6.79-.79-10.19-.21-2.58-1.32-3.84-4.19-3.8-9.74.14-19.49.11-29.24,0-2.66,0-4,.86-4.5,3.55-1,5.51-2.39,10.95-3.41,16.46-.52,2.87-1.74,4.15-4.83,4.1-9.63-.16-19.26-.1-28.88,0-2.54,0-3.74-.81-3.8-3.57-.41-19.59-1-39.18-1.41-58.78-.11-4.81.08-4.93,4.87-4.93q25.41,0,50.81,0Z" transform="translate(-18.18 -205.12)"/><path class="cls-1" d="M1546.84,571.58c0,19.61.06,39.23-.06,58.84,0,3.22.93,5.16,3.92,6.57,4,1.87,7.62,4.33,11.52,6.34a4.83,4.83,0,0,1,3,4.9q-.15,10,0,20.1c0,2.76-.91,4-3.8,3.95q-27.41-.1-54.82,0a4.42,4.42,0,0,1-4.82-3.48c-1-3-2.12-6-3-9s-2.77-3.24-5-1.94a49.28,49.28,0,0,0-5.29,3.86c-13.31,10.23-28.46,15.66-45.14,15.53-29.24-.23-52.2-19.34-56.18-48-2.22-15.93-1.54-32.29-1.79-48.47s-.11-32.4,0-48.6c0-3-1.09-4.68-3.77-5.87-4.89-2.18-9.63-4.7-14.51-6.92-2-.92-3-2.15-3-4.44.08-7.06.09-14.13,0-21.19,0-2.7,1.09-3.63,3.71-3.63,21,.06,41.91.1,62.87,0,3.41,0,4.16,1.84,4.31,4.5.33,5.71.81,11.43.83,17.14.09,31.55,0,63.1.18,94.66a53,53,0,0,0,2.38,14.7c3.34,11.14,17.31,18.79,29.36,16.41a48.36,48.36,0,0,0,22-11,7.4,7.4,0,0,0,2.26-5c.13-30.7.08-61.4.12-92.1a4,4,0,0,0-3-4.32c-3.55-1.27-7-2.88-10.54-4.15-2.45-.87-3.35-2.4-3.32-5,.1-7.31.18-14.62,0-21.93-.1-3.55,1.23-4.66,4.67-4.6,18.26.34,36.53.51,54.79.73,1.83,0,3.65,0,5.48,0,5.34,0,5.92.47,6.07,5.73.33,11.55.65,23.11.76,34.68.12,13.64,0,27.28,0,40.93Z" transform="translate(-18.18 -205.12)"/><path class="cls-1" d="M1114.92,590.49c0,13.64.07,27.29-.06,40.93,0,3,.62,5.35,3.48,6.54,9.58,3.94,12.84,11,11.32,21.09-.62,4.13.31,8.49.24,12.73a3.72,3.72,0,0,1-2,2.71,16.75,16.75,0,0,1-5.39.7c-14.5.08-29,0-43.5.18-2.77,0-4.82-.63-6.55-3a76.26,76.26,0,0,0-7.59-8.87,4.54,4.54,0,0,0-3.89-.94,23.83,23.83,0,0,0-6.37,3.49c-10.52,8-22.53,11.39-35.52,11.43-7.17,0-14.36-.31-21.51-.93-12.65-1.11-22-8.28-29.53-17.78-14.76-18.7-16-39.3-6.24-60.44,5.87-12.8,17.26-19.76,30.13-24.46,12-4.4,24.63-5.66,37.22-6.92,9.08-.9,18.17-1.58,27.26-2.31,3.07-.24,4.68-1.57,5.37-4.79a30.11,30.11,0,0,0-25.36-35.94c-8.81-1.21-16.58,1.46-24.13,5.35a6.43,6.43,0,0,0-2.5,3.34c-1.46,3.87-2.46,7.93-4.09,11.72a5.49,5.49,0,0,1-3.77,2.94c-10.95.48-21.9.54-32.85.94-3.49.12-4.37-1.32-4.32-4.52.15-8.38,0-16.76.09-25.14.12-7.66,3.36-13.43,10.38-17.13,15.08-7.94,30.62-14.64,47.67-16.67,29-3.44,55.29,2.78,76.76,23.63,9.4,9.13,13.78,21.12,14.36,33.94.71,16,.17,32.12.17,48.18Zm-69.27,6.59c0-.34-.09-.67-.14-1-7,1.08-14.3,1.38-21,3.42-9.86,3-16.08,13.11-15.58,23.13.39,7.73,5,12.9,12.57,14.36,12.89,2.5,24.31-.45,34.42-8.84,7.93-6.59,10.39-21.7,4.59-29.79a4.46,4.46,0,0,0-3.14-1.22C1053.44,597,1049.55,597.08,1045.65,597.08Z" transform="translate(-18.18 -205.12)"/><path class="cls-1" d="M99.43,316.54A23.32,23.32,0,0,1,76.05,340a23.59,23.59,0,0,1-23.43-23.18c-.21-12.77,10.46-23.38,23.5-23.37A23.22,23.22,0,0,1,99.43,316.54Zm-12.51.6c.15-6.46-4.39-11.43-10.58-11.56a11.13,11.13,0,0,0-11.25,11,11.3,11.3,0,0,0,10.74,11.18A10.74,10.74,0,0,0,86.92,317.14Z" transform="translate(-18.18 -205.12)"/><path class="cls-1" d="M76,280.57a23.18,23.18,0,1,1,23.42-23.29A23.21,23.21,0,0,1,76,280.57Zm10.91-23.25a10.79,10.79,0,0,0-10.71-11,11.13,11.13,0,1,0,.14,22.25A10.8,10.8,0,0,0,86.92,257.32Z" transform="translate(-18.18 -205.12)"/></svg>