<svg id="Слой_1" data-name="Слой 1" xmlns="http://www.w3.org/2000/svg" viewBox="0 0 1173.26 373.22"><defs><style>.cls-1{fill:#f97f29;}</style></defs><path class="cls-1" d="M425,325c11.5,0,23,.06,34.5,0q91.47-.48,182.94-1c7.52,0,7.54,0,7.55,7.42q0,39.25,0,78.5c0,7.32-.06,7.37-7.12,7.38-13.67,0-27.33-.16-41,.1-4.61.08-7-1-7.54-6.06-.8-7.27-2.52-14.43-3.61-21.68-.57-3.74-2.07-5.44-6.16-5.36-13,.22-26,.27-39,0-4.73-.11-6.16,2-6.44,6.13-.59,8.64-1.8,17.26-1.88,25.89q-.75,79.23-1,158.44c0,11.13,1.3,22.26,1.83,33.4.18,3.91,1.88,6,5.66,7.06,7.52,2.17,14.89,4.86,22.4,7.05,3.7,1.07,5,3.15,4.9,6.89-.18,9.16-.2,18.33,0,27.49.1,4.31-1.44,5.8-5.8,5.82q-60,.3-119.95,1c-4.32,0-8.65.24-13,.6-3.6.3-5.71-.49-5.65-4.74.17-10.33.14-20.66,0-31,0-3.26,1.47-4.77,4.37-5.71,7.46-2.39,14.83-5,22.3-7.4,2.9-.9,4.53-2.33,4.74-5.51.42-6.14,1.37-12.25,1.57-18.39.57-17.31.95-34.63,1.27-52,.34-18.82.91-37.64.69-56.45-.3-26.47-1.2-52.94-1.94-79.4-.13-4.65-.72-9.29-1.1-13.94-.28-3.53-1.8-5.26-5.72-5.2-13.33.19-26.66.16-40,0-3.63,0-5.47,1.19-6.15,4.86-1.4,7.53-3.28,15-4.66,22.51-.72,3.93-2.38,5.68-6.62,5.61-13.16-.21-26.33-.13-39.5,0-3.47,0-5.12-1.1-5.19-4.88-.57-26.8-1.33-53.6-1.93-80.4-.15-6.58.11-6.74,6.67-6.75q34.74,0,69.49,0Z" transform="translate(-348.81 -304.32)"/><path class="cls-1" d="M772.85,556c0,18.67.1,37.33-.07,56,0,4.09.84,7.32,4.76,8.93,13.1,5.4,17.55,15.07,15.48,28.85-.84,5.66.43,11.61.32,17.42a5,5,0,0,1-2.76,3.7,22.7,22.7,0,0,1-7.37,1c-19.83.12-39.67.07-59.5.24-3.79,0-6.59-.85-9-4.11a105.24,105.24,0,0,0-10.39-12.13,6.2,6.2,0,0,0-5.32-1.28,32.23,32.23,0,0,0-8.72,4.77c-14.39,10.92-30.81,15.57-48.58,15.63-9.81,0-19.65-.42-29.42-1.27-17.31-1.52-30.14-11.33-40.4-24.32-20.19-25.58-21.82-53.76-8.54-82.68,8.05-17.51,23.62-27,41.22-33.45,16.45-6,33.69-7.74,50.92-9.46,12.41-1.24,24.85-2.17,37.28-3.16,4.2-.34,6.41-2.15,7.34-6.56a41.18,41.18,0,0,0-34.68-49.16c-12.05-1.65-22.69,2-33,7.32-1.53.79-2.76,2.84-3.41,4.57-2,5.3-3.37,10.85-5.6,16-.78,1.8-3.34,3.94-5.16,4-15,.66-30,.74-44.93,1.28-4.77.18-6-1.8-5.91-6.18.21-11.45-.06-22.92.12-34.38.17-10.47,4.6-18.37,14.2-23.43,20.63-10.86,41.88-20,65.21-22.8,39.65-4.71,75.62,3.8,105,32.32,12.86,12.48,18.85,28.89,19.64,46.41,1,21.94.23,43.94.23,65.92Zm-94.74,9c-.06-.45-.13-.91-.19-1.37-9.62,1.48-19.57,1.89-28.79,4.68-13.48,4.07-22,17.93-21.3,31.64.53,10.57,6.83,17.63,17.19,19.64,17.63,3.41,33.26-.61,47.08-12.1,10.84-9,14.21-29.68,6.28-40.74-.76-1.07-2.82-1.61-4.3-1.67C688.77,564.9,683.44,565,678.11,565Z" transform="translate(-348.81 -304.32)"/><path class="cls-1" d="M850.09,433.94c6.21-2.68,11-4.94,15.9-6.81,10.41-4,20.6-9.44,31.4-11.25,35.53-5.95,64.13,6.65,85.3,35.69,13.57,18.6,18.66,40.49,22.13,62.59,5.35,34.07,2.56,67.73-7.29,100.83-9.66,32.5-39.87,57.64-73.61,61.71-24.24,2.92-46.41-1.56-66.15-16.26-4.08-3.05-7.75-6.67-12.28-10.6-2.58,5.47-5.23,10.58-7.41,15.87-1.57,3.83-4,5.09-8.07,5q-22.25-.29-44.49,0c-3.95,0-5.9-1.38-6.26-5.25-1.06-11.6-3.08-23.18-3.11-34.77q-.4-131,0-262c0-5.71-1.44-8.86-7.07-10.59-6.67-2.06-13-5.09-19.61-7.48-3.15-1.14-4.42-3.08-4.38-6.36q.13-14.25,0-28.5c0-3.89,1.73-5.25,5.49-5.24q46.74.1,93.49,0c4.53,0,5.1,2.37,5.13,6q.38,54.72.91,109.45C850.1,428.13,850.09,430.25,850.09,433.94Zm0,115.13c0,13.49-.11,27,0,40.45.12,11.63,5.2,20.44,15.62,25.94,2.35,1.24,4.73,2.46,7.15,3.55,19.46,8.74,40,2.92,52-14.61C934,591,937,575.65,936.59,560.19c-.43-17.87-3.3-35.69-5.31-53.51-2.9-25.71-27.36-40.39-54.37-33.86-17.29,4.18-26.28,16.79-26.76,36.31C849.82,522.43,850.08,535.76,850.09,549.07Z" transform="translate(-348.81 -304.32)"/><path class="cls-1" d="M1218.67,526c0,26.83.09,53.66-.08,80.49,0,4.41,1.28,7.06,5.36,9,5.41,2.55,10.43,5.91,15.76,8.66a6.61,6.61,0,0,1,4,6.7q-.21,13.74,0,27.49c.06,3.79-1.25,5.42-5.2,5.41q-37.49-.15-75,0c-3.6,0-5.55-1.47-6.59-4.77-1.3-4.13-2.9-8.17-4.15-12.32s-3.79-4.43-6.89-2.66a66,66,0,0,0-7.24,5.29c-18.21,14-38.93,21.41-61.74,21.23-40-.31-71.4-26.44-76.85-65.6-3-21.8-2.1-44.18-2.45-66.3s-.14-44.33,0-66.49c0-4.14-1.49-6.39-5.15-8-6.69-3-13.18-6.43-19.85-9.47-2.77-1.26-4.14-2.94-4.11-6.07.11-9.66.13-19.33,0-29-.05-3.69,1.5-5,5.08-5,28.66.08,57.32.14,86,0,4.67,0,5.69,2.52,5.9,6.17.45,7.8,1.11,15.62,1.13,23.43.13,43.16,0,86.32.25,129.48a72.51,72.51,0,0,0,3.25,20.11c4.57,15.23,23.68,25.7,40.16,22.45,11.36-2.24,21.32-7.62,30.08-15a10.11,10.11,0,0,0,3.09-6.87c.18-42,.11-84,.17-126,0-3.17-1.25-4.85-4.18-5.91-4.85-1.74-9.55-3.93-14.41-5.67-3.35-1.2-4.59-3.28-4.54-6.78.14-10,.24-20,0-30-.14-4.86,1.68-6.38,6.39-6.29,25,.46,50,.69,74.94,1,2.5,0,5,0,7.49,0,7.3,0,8.11.63,8.31,7.82.44,15.81.88,31.63,1,47.44.18,18.66,0,37.33,0,56Z" transform="translate(-348.81 -304.32)"/><path class="cls-1" d="M1300,458.92v146c0,8.49,0,8.45,7.64,11.59,6,2.47,11.92,5.18,18,7.51,3.07,1.18,4.5,2.9,4.45,6.28q-.21,14,0,28c0,3.56-1.22,5.12-4.93,5.15-35,.25-70,.63-104.93.87-4.64,0-9.29-.64-13.94-.79-3-.1-4.16-1.54-4.15-4.37,0-9.83-.23-19.67.2-29.49.09-2,2.31-4.71,4.25-5.68a100.81,100.81,0,0,1,16.7-6.63c5.54-1.6,7-4.72,6.94-10.2-.19-44.33-.11-88.66-.11-133,0-38.16-.09-76.32.11-114.48,0-5.19-1.45-7.83-6.57-9.33-7.5-2.19-14.72-5.33-22.14-7.82-3.18-1.06-4.55-2.76-4.49-6.15.15-9,.14-18,0-27,0-3.61,1.39-5.05,5-5q46.48.1,93,0c5.11,0,5,3.08,5,6.61q0,58.74,0,117.49Z" transform="translate(-348.81 -304.32)"/><path class="cls-1" d="M1522.07,661.44c-20.66,0-41.4-1.05-62,.45-10,.72-15.64-2.54-20.69-9.73-.19-.27-.42-.52-.63-.77-8-9.91-8.32-10.35-18.9-2.37-16,12.05-34.24,16-53.53,16.2A167.11,167.11,0,0,1,1338,663c-17-2.73-29.38-13.11-38.9-26.71-18.41-26.32-18.85-54.13-4.25-82.09,7.77-14.87,21.57-23.25,36.86-29.1s31.55-8.14,47.84-9.63c15.07-1.39,30.16-2.62,45.21-4.23a6.46,6.46,0,0,0,4.36-3.72c8.21-24.76-11.4-52.17-37.68-53.16-10.72-.41-20.38,2.81-29.57,7.75a10.77,10.77,0,0,0-4.2,5.19,126.76,126.76,0,0,0-4.77,14.21c-1.06,3.79-3.35,5.64-7.12,5.75q-22,.62-43.93,1.14c-2.57.07-4.79-.42-4.74-3.67.24-13.81.08-27.64,1-41.41.51-8,5.16-13.89,12.62-17.91,21.16-11.39,43.12-20.27,67.13-23.19a133.81,133.81,0,0,1,69,9.57c13.56,5.68,25.67,13.23,35.5,24.35,10.57,12,16.12,26.14,17.48,41.68,1.23,13.89,1.13,27.93,1.21,41.9q.24,41,0,82c0,4.41.94,7.62,5,9.89,3.77,2.09,7,5.06,10.75,7.27,3.28,2,4.32,4.54,4.34,8.25.05,6.78.61,13.55,1,20.33Zm-112.89-107v0c-4.49,0-9-.11-13.47,0C1375.6,555,1362,564.82,1357,582.2c-3.67,12.73,4.22,26.08,17.19,28.24a76.88,76.88,0,0,0,17.86.89c14.16-1,25.8-7.49,34.65-18.44,6.85-8.46,7.39-26.71,1.47-36.11-.77-1.23-2.93-2.13-4.5-2.22C1418.84,554.28,1414,554.46,1409.18,554.46Z" transform="translate(-348.81 -304.32)"/></svg>