<svg id="Слой_1" data-name="Слой 1" xmlns="http://www.w3.org/2000/svg" viewBox="0 0 447.58 560.46"><defs><style>.cls-1{fill:#f07f30}</style></defs><path class="cls-1" d="m95.72 678.18 21.7-107.06 19.26-95.1q8.7-42.91 17.38-85.83c.86-4.26.82-4.28-3.5-4.28H61.5c-4.08 0-4.08 0-4.08-4V121.79c0-4.07 0-4.07 4-4.07H500.9c4.09 0 4.1 0 4.1 4v260.1c0 4.08 0 4.09-4 4.09h-93.4q29.69 146.69 59.1 292.27h-44.08l-6.42-33.56q-8.38-44.05-16.72-88.13c-.51-2.71-1.6-3.57-4.41-3.56-29.18.11-58.36.07-87.53.07-4.47 0-4.48 0-4.49 4.57 0 28.06 0 56.11.06 84.17 0 3-.85 3.83-3.8 3.79-11.94-.15-23.87-.06-35.81-.06-4.13 0-4.14 0-4.14-4.26v-84.16c0-4 0-4-4.09-4h-86c-6.48 0-5.27-.85-6.47 5.31q-10.4 53.77-20.64 107.58c-.77 4.06-1.18 8.18-1.75 12.28Zm185.69-551.76H70.86c-4.79 0-4.79 0-4.79 4.66v190.35c0 4.43 0 4.43 4.54 4.43h267.47c2.66 0 5.31-.11 8 0 2.11.11 2.88-.62 2.83-2.77-.11-5.51 0-11-.07-16.53 0-2.07.62-3.06 2.8-2.89 1.31.1 2.65 0 4 0q52 0 104.05-.05c2.93 0 3.94.79 3.81 3.78-.22 5.09 0 10.2-.09 15.3-.06 2.36.68 3.2 3.14 3.16 8.77-.13 17.55-.15 26.32 0 2.74.05 3.64-.67 3.63-3.54q-.12-96.1 0-192.19c0-3-1-4.11-3.86-3.79a28.38 28.38 0 0 1-3.06 0Zm-.16 250.86H491.8c4.57 0 4.57 0 4.57-4.69v-34c0-4 0-4-4.12-4.06H70.55c-4.47 0-4.48 0-4.48 4.36v33.66c0 4.69 0 4.7 4.64 4.7Zm111 143.86c-.14-1.45-.17-2.44-.35-3.4q-4.38-22.92-8.79-45.84c-5.26-27.47-10.57-54.93-15.7-82.42-.53-2.84-1.64-3.64-4.39-3.62-18.56.09-37.13 0-55.7.05-4.23 0-4.29 0-4.29 4.24v126.71c0 4.27 0 4.28 4.2 4.28h85ZM170.06 521c1.74.07 3 .18 4.33.18h80.46c4.5 0 4.51 0 4.51-4.59V389.32c0-2.16-.47-3.42-3.05-3.41q-28.9.11-57.82 0c-2 0-2.92.74-3.28 2.71-1.58 8.7-3.26 17.39-4.93 26.07l-18.19 94.66c-.7 3.72-1.31 7.49-2.03 11.65Zm-63.27 147.66c8.59 0 16.43.07 24.27-.1.74 0 1.84-1.42 2.09-2.36.72-2.75 1-5.6 1.59-8.4l14.47-75.2q9.31-48.69 18.58-97.41 9.19-48.1 18.5-96.18c.47-2.42-.23-3.15-2.54-3.12-5.51.07-11 .13-16.52 0-2.49-.07-3.55.67-4.07 3.25q-12.94 64.63-26.09 129.23l-27.26 134.91c-1 4.92-1.95 9.89-3.02 15.38Zm348.67 0c-.18-1.61-.23-2.81-.47-4q-4.08-20.19-8.19-40.37l-19.34-96q-9.6-47.55-19.25-95.08l-9-44.55c-.33-1.69-.76-2.83-2.81-2.81-6 .08-12 .05-18.05 0-2.14 0-2.57.88-2.13 2.88.91 4.07 1.57 8.19 2.36 12.28l16.19 84.16q8.5 44.34 16.93 88.68l13.18 69.21c1.45 7.59 2.89 15.18 4.4 22.76.26 1.29.31 2.85 2.46 2.83 7.72-.03 15.46.02 23.72.02Zm-161.1-215.2v-64.23c0-2.46-.62-3.44-3.23-3.38-6.62.15-13.26.14-19.88 0-2.59-.05-3.29.94-3.27 3.4.1 10.91 0 21.82 0 32.73 0 31.81 0 63.62-.06 95.43 0 2.94.81 3.88 3.77 3.78 6.32-.21 12.65-.22 19 0 3 .11 3.71-.94 3.69-3.81-.07-21.29-.02-42.6-.02-63.91Zm0 99.53c-8.13 0-15.67.09-23.21 0-2.42 0-3.14.7-3.13 3.11q.11 38.7 0 77.41c0 2.81 1.05 3.45 3.59 3.39 6.32-.13 12.66-.22 19 0 3.23.13 3.87-1 3.85-4-.11-25.4-.06-50.79-.06-76.18Zm102.45-9.2c-.64-3.64-1.36-6.78-1.7-10-.31-2.81-1.55-3.57-4.34-3.56-26.19.12-52.38.07-78.56.07-9.23 0-9.23 0-9.16 9.36 0 4.08 0 4.09 4 4.09h89.72Zm-231.2 0h84.05c3 0 7.33.9 8.75-.68 1.65-1.83.66-5.94 1-9.05s-.94-3.77-3.85-3.76c-24.06.11-48.13.06-72.19.06-4.28 0-8.57-.08-12.85.07-.89 0-2.38.75-2.54 1.41-.98 3.72-1.54 7.52-2.37 11.96Zm259.77-217.93c8.67 0 17.33-.07 26 .05 2.45 0 3.58-.61 3.38-3.23a48.52 48.52 0 0 1 0-7c.19-2.6-.93-3.28-3.39-3.27-17.23.08-34.46.11-51.69 0-3 0-3.76 1.11-3.59 3.76a46.14 46.14 0 0 1 0 6.11c-.19 2.7.67 3.77 3.61 3.7 8.55-.24 17.12-.12 25.68-.12Zm-53 0c4.17 0 8.34-.06 12.52 0 1.77 0 2.62-.49 2.54-2.41-.1-2.85-.09-5.7 0-8.55.06-1.81-.62-2.54-2.48-2.52q-12.36.07-24.73 0c-1.78 0-2.67.63-2.65 2.45v8.55c0 1.8.77 2.52 2.6 2.48 4.04-.06 8.11 0 12.18 0ZM294.06 543.8v-13.44h-23.82c-1.56 0-2.21.57-2.18 2.15.06 3 .09 5.91 0 8.86-.06 1.86.65 2.51 2.5 2.47 4.38-.09 8.76 0 13.15 0Z" transform="translate(-57.42 -117.72)"/><path class="cls-1" d="M123.67 160.7a18.13 18.13 0 0 1-18.85 18.7c-11.7-.15-18.68-9.21-18.58-19.1.1-9.43 7.08-18.6 18.81-18.54 12.81.08 19.23 10.71 18.62 18.94Zm-18.62-9.9a9.79 9.79 0 1 0 0 19.57 9.79 9.79 0 1 0 0-19.57ZM123.67 210.39a18.85 18.85 0 0 1-18.88 18.77 19.07 19.07 0 0 1-18.58-18.91c0-8.74 6.21-18.79 18.87-18.81a18.16 18.16 0 0 1 18.59 18.95Zm-8.69-.18a9.71 9.71 0 0 0-9.85-9.82A10 10 0 0 0 95 210.3a10.35 10.35 0 0 0 10.27 10 10.08 10.08 0 0 0 9.73-10.09Z" transform="translate(-57.42 -117.72)"/></svg>