<svg id="Слой_1" data-name="Слой 1" xmlns="http://www.w3.org/2000/svg" viewBox="0 0 1884 670.4"><defs><style>.cls-1{fill:#f97f29}</style></defs><path class="cls-1" d="M1902 670h-45c-7 1-12-1-15-7h-1c-6-7-6-8-14-2-11 9-25 12-39 12a122 122 0 0 1-20-2c-13-2-22-9-29-19a54 54 0 0 1-3-60c6-11 16-17 27-22s23-6 35-7l33-3a5 5 0 0 0 3-2c6-18-8-39-27-39-8-1-15 2-22 5a8 8 0 0 0-3 4 94 94 0 0 0-3 11c-1 2-3 4-6 4l-32 1c-2 0-3-1-3-3v-30c1-6 4-10 10-13 15-9 31-15 49-17a98 98 0 0 1 50 7c10 4 19 9 26 17a52 52 0 0 1 13 31l1 31v59c0 4 1 6 4 8l7 5c3 1 4 3 4 6v15Zm-82-78h-10c-15 0-25 7-29 20-2 9 4 19 13 21a57 57 0 0 0 13 0c10 0 19-5 25-13 5-6 6-20 2-26a5 5 0 0 0-4-2h-10ZM1673 523v107c0 6 0 6 5 8l13 5c3 1 4 3 4 5v21c0 2-1 3-4 3l-77 1-10-1c-2 0-3-1-3-3v-21c0-2 2-4 3-5a73 73 0 0 1 13-4c4-2 5-4 5-8V450c0-4-1-6-5-7l-16-5c-3-1-4-2-4-5v-20c0-2 1-3 4-3h68c4 0 4 2 4 5v85ZM554 205a34 34 0 0 1 1 5v313c0 4 0 5-5 5H444c-5 0-5 0-4 5l26 131 42 209 1 3h-54l-2-10-26-134c-1-5-1-5-6-5H319c-5 0-5 0-5 5v100c0 6 0 6-6 6h-43c-6 0-6 0-6-6v-99c0-6 0-6-6-6h-95c-11 0-11 0-13 10l-19 102-8 37H64l17-82 52-261c1-5 1-5-4-5H18V205Zm-267 13H37c-6 0-6 0-6 5v226c0 5 0 5 6 5h325c3 0 4-1 4-4v-19c0-3 1-4 4-4h131c3 0 4 1 4 4v19c0 3 1 4 4 4h27c6 0 6 0 6-6V221a6 6 0 0 0-3-3h-4Zm0 248H36c-5 0-5 0-5 5v38c0 6 0 6 6 6h502l3-3v-43l-3-3h-4Zm27 141v75c0 4 1 5 4 5h95c5 0 5 0 4-5l-28-150c-1-4-2-5-6-4h-64c-5 0-5 0-5 5v74Zm-55 0v-75c0-3-1-5-4-4h-65c-4 0-5 1-6 4l-9 49-19 101c-1 5-1 5 4 5h95c3 0 4-1 4-5v-75ZM79 864l27-1c1 0 3-1 3-3l5-27 40-207 18-94c1-4 0-4-4-4h-17c-3-1-4 1-5 4l-27 136-35 173-5 23Zm415 0-1-6-41-200-25-126c-1-3-2-5-5-4h-17c-4-1-4 1-4 4l22 113 29 151 12 64 3 3 27 1ZM302 608v-76c0-3-1-5-5-4h-21c-3-1-4 1-4 4v151c0 3 1 4 4 4h21c4 0 5-1 5-5v-74Zm0 168v-45c0-3-1-5-4-4h-22c-3-1-4 0-4 3v91c0 3 1 4 4 4h21c4 0 5-1 5-4v-45Zm122-62-2-10c-1-4-2-5-6-5l-92 1c-10 0-10 0-10 10 0 5 0 5 5 5h100l5-1Zm-275 1h100c10 0 10 0 10-10 0-5 0-5-5-5h-97a10 10 0 0 0-3 0l-2 1-3 14Zm310-261h24c10 0 10 0 10-9 0-4-1-5-5-5h-53c-12 0-10-2-10 10 0 3 1 4 4 4h30Zm-64 0h7c12 0 10 3 10-11 0-2-1-3-3-3h-20c-12 0-10-3-10 11 0 2 1 3 3 3h13ZM287 715h3c12 0 12 0 12-12 0-3-1-3-3-3h-24c-2 0-3 1-3 3v8c0 3 1 4 3 4h12ZM1218 499l12-5c7-3 15-7 23-8 26-4 46 5 62 26 10 14 14 30 16 46 4 25 2 49-5 74-7 23-29 42-54 45-18 2-34-1-48-12l-9-8-6 12c-1 2-3 3-6 3h-32c-3 0-5-1-5-3l-2-26V452c0-5-1-7-5-8l-15-6a4 4 0 0 1-3-4v-21c0-3 1-4 4-4h69c3 0 3 2 3 4l1 80v6Zm0 84v30c0 9 4 15 11 19l6 3c14 6 29 2 38-11 6-10 8-21 8-32 0-13-2-26-4-40-2-18-20-29-39-24-13 3-20 12-20 26v29ZM773 424h159c6 0 6 0 6 5v57c0 6 0 6-5 6h-30c-4 0-5-1-6-5l-2-15c-1-3-2-4-5-4h-28c-4 0-5 1-5 4l-2 19v116l1 24c0 3 1 5 4 5l17 6c2 0 3 2 3 5v20c0 3-1 4-4 4l-88 1h-9c-3 0-4 0-4-3v-23c0-2 1-3 3-4l16-6c2 0 3-1 4-4l1-13 1-38v-41l-1-58-1-11c0-2-1-3-4-3h-29c-3 0-4 1-5 3l-3 17c-1 3-2 4-5 4h-29c-3 0-4-1-4-4l-1-59c0-4 0-5 5-5h50ZM1547 572v58c0 4 1 6 4 7l11 6a5 5 0 0 1 3 5v20c0 3-1 4-4 4h-54a4 4 0 0 1-5-3l-3-9c-1-3-3-3-5-2a49 49 0 0 0-6 4 72 72 0 0 1-45 15c-29 0-52-19-56-48-2-16-1-32-2-48v-49c0-3-1-4-3-6l-15-7c-2-1-3-2-3-4v-21c0-3 1-4 4-4h63c3 0 4 2 4 5l1 17v94a53 53 0 0 0 2 15c4 11 18 19 30 17a48 48 0 0 0 22-11 7 7 0 0 0 2-5v-93a4 4 0 0 0-3-4l-10-4c-3-1-4-2-4-5v-22c0-4 1-5 5-5l55 1h5c6 0 6 1 6 6l1 35v41ZM1115 590v41c0 3 0 6 3 7 10 4 13 11 12 21v13a4 4 0 0 1-2 2 17 17 0 0 1-5 1h-44c-3 0-5 0-7-3a76 76 0 0 0-7-8 5 5 0 0 0-4-1 24 24 0 0 0-6 3c-11 8-23 11-36 11h-21c-13-2-22-9-30-18a55 55 0 0 1-6-61c6-12 17-19 30-24 12-5 25-6 37-7l27-2c3-1 5-2 6-5a30 30 0 0 0-26-36c-8-1-16 1-24 5a6 6 0 0 0-2 4l-4 11a5 5 0 0 1-4 3l-33 1c-3 0-4-1-4-4v-25c0-8 3-14 10-18 15-8 31-14 48-16 29-4 55 3 77 23 9 10 13 21 14 34v48Zm-69 7v-1c-7 1-15 1-21 4-10 3-17 13-16 23 0 7 5 13 12 14 13 2 25 0 35-9 8-6 10-22 5-30a4 4 0 0 0-4-1h-11Z" transform="translate(-18 -205)"/><path class="cls-1" d="M99 317a23 23 0 0 1-23 23 24 24 0 0 1-23-23c-1-13 10-24 23-24a23 23 0 0 1 23 24Zm-12 0c0-6-4-11-11-11a11 11 0 0 0-11 11 11 11 0 0 0 11 11 11 11 0 0 0 11-11ZM76 281a23 23 0 1 1 23-24 23 23 0 0 1-23 24Zm11-24a11 11 0 0 0-11-11 11 11 0 1 0 0 23 11 11 0 0 0 11-12Z" transform="translate(-18 -205)"/></svg>