<svg id="Слой_1" data-name="Слой 1" xmlns="http://www.w3.org/2000/svg" viewBox="0 0 1173.3 373.2"><defs><style>.cls-1{fill:#f97f29}</style></defs><path class="cls-1" d="M425 325h34.5l183-1c7.5 0 7.5 0 7.5 7.4V410c0 7.3 0 7.4-7.1 7.4-13.7 0-27.4-.2-41 .1-4.6 0-7-1-7.6-6-.8-7.3-2.5-14.5-3.6-21.7-.6-3.8-2-5.5-6.1-5.4-13 .2-26 .3-39 0-4.8-.1-6.2 2-6.5 6.1-.6 8.7-1.8 17.3-1.9 26q-.7 79.2-1 158.4c0 11 1.3 22.2 1.9 33.4.2 3.9 1.9 6 5.6 7 7.5 2.2 15 4.9 22.4 7 3.7 1.1 5 3.2 5 7a663 663 0 0 0 0 27.4c0 4.4-1.5 5.8-5.9 5.9q-60 .3-120 1c-4.2 0-8.6.2-13 .6-3.5.3-5.6-.5-5.6-4.8.2-10.3.2-20.6 0-31 0-3.2 1.5-4.7 4.4-5.7l22.3-7.4c2.9-.9 4.5-2.3 4.7-5.5.5-6.1 1.4-12.2 1.6-18.4.6-17.3 1-34.6 1.3-52 .3-18.8.9-37.6.7-56.4-.3-26.5-1.2-53-2-79.4-.1-4.7-.7-9.3-1-14-.3-3.5-1.9-5.2-5.8-5.2-13.3.2-26.7.2-40 0-3.6 0-5.5 1.2-6.1 4.9-1.4 7.5-3.3 15-4.7 22.5-.7 4-2.4 5.7-6.6 5.6-13.2-.2-26.3-.1-39.5 0-3.5 0-5.1-1-5.2-4.9l-2-80.4c0-6.6.2-6.7 6.7-6.7H425Z" transform="translate(-348.8 -304.3)"/><path class="cls-1" d="m772.9 556-.1 56c0 4 .8 7.3 4.7 9 13.1 5.3 17.6 15 15.5 28.8-.8 5.6.4 11.6.3 17.4a5 5 0 0 1-2.7 3.7 22.7 22.7 0 0 1-7.4 1c-19.8.1-39.7 0-59.5.2-3.8 0-6.6-.8-9-4a105.2 105.2 0 0 0-10.4-12.2 6.2 6.2 0 0 0-5.3-1.3 32.2 32.2 0 0 0-8.7 4.8 78.5 78.5 0 0 1-48.6 15.6c-9.8 0-19.7-.4-29.4-1.3-17.3-1.5-30.2-11.3-40.4-24.3-20.2-25.6-21.8-53.7-8.6-82.7 8-17.5 23.7-27 41.3-33.4 16.4-6 33.7-7.7 50.9-9.5 12.4-1.2 24.8-2.1 37.3-3.1 4.2-.4 6.4-2.2 7.3-6.6a41.2 41.2 0 0 0-34.7-49.1c-12-1.7-22.7 2-33 7.3-1.5.8-2.7 2.8-3.4 4.6-2 5.3-3.4 10.8-5.6 16-.8 1.8-3.3 3.9-5.1 4-15 .6-30 .7-45 1.2-4.7.2-6-1.8-5.9-6.2.2-11.4 0-22.9.1-34.3a25 25 0 0 1 14.2-23.5c20.7-10.8 42-20 65.2-22.8 39.7-4.7 75.7 3.8 105 32.4a67.2 67.2 0 0 1 19.7 46.4c1 22 .2 44 .2 65.9Zm-94.8 9-.2-1.4c-9.6 1.5-19.6 2-28.8 4.7-13.5 4-22 18-21.3 31.6a19.9 19.9 0 0 0 17.2 19.7 54.1 54.1 0 0 0 47.1-12.1c10.8-9 14.2-29.7 6.3-40.8-.8-1-2.8-1.6-4.3-1.6-5.3-.2-10.7-.1-16-.1Z" transform="translate(-348.8 -304.3)"/><path class="cls-1" d="M850 434c6.3-2.7 11-5 16-6.9 10.4-4 20.6-9.4 31.4-11.2 35.5-6 64.1 6.6 85.3 35.7 13.6 18.6 18.6 40.5 22.1 62.6 5.4 34 2.6 67.7-7.3 100.8a89.5 89.5 0 0 1-73.6 61.7 88.5 88.5 0 0 1-66.1-16.3c-4.1-3-7.8-6.6-12.3-10.6-2.6 5.5-5.2 10.6-7.4 16-1.6 3.7-4 5-8 5q-22.3-.4-44.6 0c-4 0-5.9-1.5-6.2-5.3-1.1-11.6-3.1-23.2-3.1-34.8q-.5-131 0-262c0-5.7-1.5-8.9-7.1-10.6-6.7-2-13-5-19.6-7.5-3.2-1.1-4.5-3-4.4-6.3v-28.5c0-4 1.7-5.3 5.5-5.3H844c4.5 0 5 2.4 5.1 6l1 109.5-.1 8Zm0 115v40.5a27.7 27.7 0 0 0 15.7 26c2.4 1.2 4.7 2.4 7.2 3.5 19.4 8.7 40 3 52-14.6a73.3 73.3 0 0 0 11.7-44.2c-.4-17.9-3.3-35.7-5.3-53.5-3-25.7-27.4-40.4-54.4-33.9-17.3 4.2-26.3 16.8-26.7 36.3-.4 13.3-.1 26.7-.1 40Z" transform="translate(-348.8 -304.3)"/><path class="cls-1" d="m1218.7 526-.1 80.5c0 4.4 1.3 7 5.4 9 5.4 2.5 10.4 5.9 15.7 8.7a6.6 6.6 0 0 1 4 6.6q-.2 13.8 0 27.5c0 3.8-1.2 5.5-5.2 5.5q-37.5-.2-75 0c-3.6 0-5.5-1.5-6.6-4.8-1.3-4.1-2.9-8.2-4.1-12.3s-3.8-4.5-7-2.7a66 66 0 0 0-7.2 5.3 98.1 98.1 0 0 1-61.7 21.2c-40-.3-71.4-26.4-76.9-65.6-3-21.8-2-44.2-2.4-66.3s-.1-44.3 0-66.5c0-4.1-1.5-6.4-5.2-8-6.6-3-13.1-6.4-19.8-9.4-2.8-1.3-4.1-3-4.1-6.1v-29c0-3.7 1.5-5 5-5h86c4.7 0 5.8 2.5 6 6.2.4 7.8 1 15.6 1.1 23.4.1 43.2 0 86.3.3 129.5a72.5 72.5 0 0 0 3.2 20c4.6 15.3 23.7 25.8 40.2 22.5a66.5 66.5 0 0 0 30-15 10.1 10.1 0 0 0 3.1-6.8c.2-42 .1-84 .2-126 0-3.2-1.3-4.9-4.2-6-4.8-1.7-9.5-3.9-14.4-5.6-3.3-1.2-4.6-3.3-4.5-6.8.1-10 .2-20 0-30-.2-4.9 1.6-6.4 6.4-6.3 25 .5 50 .7 74.9 1h7.5c7.3 0 8.1.6 8.3 7.8.4 15.8.9 31.7 1 47.5.2 18.6 0 37.3 0 56Z" transform="translate(-348.8 -304.3)"/><path class="cls-1" d="M1300 459v146c0 8.4 0 8.4 7.6 11.5 6 2.5 12 5.2 18 7.5 3.1 1.2 4.5 3 4.5 6.3q-.2 14 0 28c0 3.6-1.2 5.1-5 5.2l-104.9.8c-4.6 0-9.3-.6-14-.8-3 0-4-1.5-4-4.3 0-9.9-.3-19.7.1-29.5.1-2 2.3-4.7 4.3-5.7a100.8 100.8 0 0 1 16.7-6.6c5.5-1.6 7-4.8 7-10.2-.3-44.4-.2-88.7-.2-133l.1-114.5c0-5.2-1.4-7.8-6.5-9.3-7.5-2.2-14.8-5.4-22.2-7.9-3.2-1-4.5-2.7-4.5-6.1.2-9 .2-18 0-27 0-3.6 1.4-5 5-5h93c5.1 0 5 3 5 6.6v117.5Z" transform="translate(-348.8 -304.3)"/><path class="cls-1" d="M1522 661.4c-20.6 0-41.3-1-62 .5-10 .7-15.6-2.5-20.6-9.7l-.7-.8c-8-10-8.3-10.4-18.9-2.4-16 12-34.2 16-53.5 16.2a167.1 167.1 0 0 1-28.3-2.2 58.7 58.7 0 0 1-38.9-26.7c-18.4-26.3-18.9-54.1-4.3-82.1 7.8-14.9 21.6-23.3 37-29.1s31.5-8.1 47.7-9.6c15.1-1.4 30.2-2.7 45.3-4.3a6.5 6.5 0 0 0 4.3-3.7c8.2-24.7-11.4-52.2-37.7-53.1a57 57 0 0 0-29.5 7.7 10.8 10.8 0 0 0-4.2 5.2 126.8 126.8 0 0 0-4.8 14.2c-1 3.8-3.4 5.6-7.1 5.8l-44 1.1c-2.5 0-4.7-.4-4.7-3.7.2-13.8 0-27.6 1-41.4.5-8 5.2-13.9 12.6-17.9a189.8 189.8 0 0 1 67.2-23.2 133.8 133.8 0 0 1 69 9.6 94.9 94.9 0 0 1 35.5 24.3 70.9 70.9 0 0 1 17.4 41.7c1.3 14 1.2 28 1.2 42q.3 41 0 82c0 4.3 1 7.5 5 9.8 3.8 2.1 7 5 10.8 7.3 3.3 2 4.3 4.5 4.3 8.2 0 6.8.6 13.6 1 20.4Zm-112.8-107h-13.5c-20.1.6-33.7 10.4-38.7 27.8a22.2 22.2 0 0 0 17.2 28.2 76.9 76.9 0 0 0 17.9 1c14.1-1 25.8-7.6 34.6-18.5 6.8-8.5 7.4-26.7 1.5-36.1-.8-1.2-3-2.1-4.5-2.2-4.9-.3-9.7-.1-14.5-.1Z" transform="translate(-348.8 -304.3)"/></svg>